<svg width="30" height="30" viewBox="0 0 30 30" fill="none" xmlns="http://www.w3.org/2000/svg">
<path d="M14.7418 11.5596C14.397 12.236 13.9451 12.8588 13.402 13.4049C12.8588 13.948 12.2331 14.4 11.5566 14.7447C12.2331 15.0894 12.8559 15.5413 13.402 16.0845C13.9451 16.6277 14.397 17.2534 14.7418 17.9298C15.0865 17.2534 15.5384 16.6306 16.0816 16.0845C16.6247 15.5413 17.2505 15.0894 17.9269 14.7447C17.2505 14.4 16.6276 13.948 16.0816 13.4049C15.5384 12.8617 15.0865 12.236 14.7418 11.5596Z" fill="#02A752"/>
<path d="M17.9259 17.9288C16.6339 19.2208 15.562 20.7054 14.7422 22.3103C13.9238 20.7025 12.852 19.2208 11.5586 17.9288C10.2665 16.6368 8.78189 15.5649 7.17702 14.7451C8.78479 13.9267 10.2665 12.8549 11.5586 11.5614C12.8506 10.2694 13.9224 8.78478 14.7422 7.17991C15.5606 8.78768 16.6324 10.2694 17.9259 11.5614C19.2179 12.8534 20.7025 13.9253 22.3074 14.7451C20.6996 15.5635 19.2179 16.6353 17.9259 17.9288ZM28.9587 14.1715C21.686 13.5719 15.9126 7.7984 15.3129 0.525783C15.2839 0.173813 15.0131 0 14.7422 0C14.4714 0 14.1991 0.175261 14.1715 0.525783C13.5719 7.7984 7.7984 13.5719 0.525783 14.1715C-0.175261 14.2295 -0.175261 15.2564 0.525783 15.3143C7.7984 15.914 13.5719 21.6875 14.1715 28.9601C14.2005 29.3121 14.4714 29.4859 14.7422 29.4859C15.0131 29.4859 15.2854 29.3106 15.3129 28.9601C15.9126 21.6875 21.686 15.914 28.9587 15.3143C29.6597 15.2564 29.6597 14.2295 28.9587 14.1715Z" fill="#02A752"/>
</svg>
