<svg width="142" height="142" viewBox="0 0 142 142" fill="none" xmlns="http://www.w3.org/2000/svg">
<path d="M100 200C86.1667 200 73.1667 197.375 61 192.125C48.8333 186.875 38.25 179.75 29.25 170.75C20.25 161.75 13.125 151.167 7.875 139C2.625 126.833 0 113.833 0 100C0 86.1667 2.625 73.1667 7.875 61C13.125 48.8333 20.25 38.25 29.25 29.25C38.25 20.25 48.8333 13.125 61 7.875C73.1667 2.625 86.1667 0 100 0C113.833 0 126.833 2.625 139 7.875C151.167 13.125 161.75 20.25 170.75 29.25C179.75 38.25 186.875 48.8333 192.125 61C197.375 73.1667 200 86.1667 200 100C200 113.833 197.375 126.833 192.125 139C186.875 151.167 179.75 161.75 170.75 170.75C161.75 179.75 151.167 186.875 139 192.125C126.833 197.375 113.833 200 100 200ZM100 180C122.333 180 141.25 172.25 156.75 156.75C172.25 141.25 180 122.333 180 100C180 77.6667 172.25 58.75 156.75 43.25C141.25 27.75 122.333 20 100 20C77.6667 20 58.75 27.75 43.25 43.25C27.75 58.75 20 77.6667 20 100C20 122.333 27.75 141.25 43.25 156.75C58.75 172.25 77.6667 180 100 180ZM100 160C83.3333 160 69.1667 154.167 57.5 142.5C45.8333 130.833 40 116.667 40 100C40 83.3333 45.8333 69.1667 57.5 57.5C69.1667 45.8333 83.3333 40 100 40C116.667 40 130.833 45.8333 142.5 57.5C154.167 69.1667 160 83.3333 160 100C160 116.667 154.167 130.833 142.5 142.5C130.833 154.167 116.667 160 100 160ZM100 140C111 140 120.417 136.083 128.25 128.25C136.083 120.417 140 111 140 100C140 89 136.083 79.5833 128.25 71.75C120.417 63.9167 111 60 100 60C89 60 79.5833 63.9167 71.75 71.75C63.9167 79.5833 60 89 60 100C60 111 63.9167 120.417 71.75 128.25C79.5833 136.083 89 140 100 140ZM100 120C94.5 120 89.7917 118.042 85.875 114.125C81.9583 110.208 80 105.5 80 100C80 94.5 81.9583 89.7917 85.875 85.875C89.7917 81.9583 94.5 80 100 80C105.5 80 110.208 81.9583 114.125 85.875C118.042 89.7917 120 94.5 120 100C120 105.5 118.042 110.208 114.125 114.125C110.208 118.042 105.5 120 100 120Z" fill="#E5E2E3"/>
</svg>
