<svg width="19" height="19" viewBox="0 0 19 19" fill="none" xmlns="http://www.w3.org/2000/svg">
<path id="Vector" fill-rule="evenodd" clip-rule="evenodd" d="M17.4633 0C17.71 0 17.9465 0.0979822 18.1209 0.272391C18.2954 0.4468 18.3933 0.683349 18.3933 0.93V9.19667C18.3933 9.44332 18.2954 9.67987 18.1209 9.85428C17.9465 10.0287 17.71 10.1267 17.4633 10.1267C17.2167 10.1267 16.9801 10.0287 16.8057 9.85428C16.6313 9.67987 16.5333 9.44332 16.5333 9.19667V3.1744L3.1744 16.5333H9.19667C9.44332 16.5333 9.67987 16.6313 9.85428 16.8057C10.0287 16.9801 10.1267 17.2167 10.1267 17.4633C10.1267 17.71 10.0287 17.9465 9.85428 18.1209C9.67987 18.2954 9.44332 18.3933 9.19667 18.3933H0.93C0.683349 18.3933 0.4468 18.2954 0.272391 18.1209C0.0979822 17.9465 0 17.71 0 17.4633V9.19667C-3.63974e-09 9.07454 0.0240554 8.95361 0.0707923 8.84077C0.117529 8.72794 0.186033 8.62542 0.272391 8.53906C0.35875 8.4527 0.461272 8.3842 0.574105 8.33746C0.686937 8.29072 0.807871 8.26667 0.93 8.26667C1.05213 8.26667 1.17306 8.29072 1.2859 8.33746C1.39873 8.3842 1.50125 8.4527 1.58761 8.53906C1.67397 8.62542 1.74247 8.72794 1.78921 8.84077C1.83595 8.95361 1.86 9.07454 1.86 9.19667V15.2189L15.2189 1.86H9.19667C8.95002 1.86 8.71347 1.76202 8.53906 1.58761C8.36465 1.4132 8.26667 1.17665 8.26667 0.93C8.26667 0.683349 8.36465 0.4468 8.53906 0.272391C8.71347 0.0979822 8.95002 0 9.19667 0H17.4633Z" fill="white"/>
</svg>
