<svg width="14" height="11" viewBox="0 0 14 11" fill="none" xmlns="http://www.w3.org/2000/svg">
<path d="M8.16667 4.66667H12.25V1.75H8.16667V4.66667ZM10.2083 3.9375L8.75 2.91667V2.33333L10.2083 3.35417L11.6667 2.33333V2.91667L10.2083 3.9375ZM1.16667 10.5C0.845833 10.5 0.571181 10.3858 0.342708 10.1573C0.114236 9.92882 0 9.65417 0 9.33333V1.16667C0 0.845833 0.114236 0.571181 0.342708 0.342708C0.571181 0.114236 0.845833 0 1.16667 0H12.8333C13.1542 0 13.4288 0.114236 13.6573 0.342708C13.8858 0.571181 14 0.845833 14 1.16667V9.33333C14 9.65417 13.8858 9.92882 13.6573 10.1573C13.4288 10.3858 13.1542 10.5 12.8333 10.5H1.16667ZM9.275 9.33333H12.8333V1.16667H1.16667V9.33333H1.225C1.63333 8.60417 2.19722 8.03299 2.91667 7.61979C3.63611 7.2066 4.41389 7 5.25 7C6.08611 7 6.86389 7.2066 7.58333 7.61979C8.30278 8.03299 8.86667 8.60417 9.275 9.33333ZM5.25 6.41667C5.73611 6.41667 6.14931 6.24653 6.48958 5.90625C6.82986 5.56597 7 5.15278 7 4.66667C7 4.18056 6.82986 3.76736 6.48958 3.42708C6.14931 3.08681 5.73611 2.91667 5.25 2.91667C4.76389 2.91667 4.35069 3.08681 4.01042 3.42708C3.67014 3.76736 3.5 4.18056 3.5 4.66667C3.5 5.15278 3.67014 5.56597 4.01042 5.90625C4.35069 6.24653 4.76389 6.41667 5.25 6.41667ZM2.65417 9.33333H7.84583C7.51528 8.96389 7.12396 8.67708 6.67188 8.47292C6.21979 8.26875 5.74583 8.16667 5.25 8.16667C4.75417 8.16667 4.28264 8.26875 3.83542 8.47292C3.38819 8.67708 2.99444 8.96389 2.65417 9.33333ZM5.25 5.25C5.08472 5.25 4.94618 5.1941 4.83437 5.08229C4.72257 4.97049 4.66667 4.83194 4.66667 4.66667C4.66667 4.50139 4.72257 4.36285 4.83437 4.25104C4.94618 4.13924 5.08472 4.08333 5.25 4.08333C5.41528 4.08333 5.55382 4.13924 5.66563 4.25104C5.77743 4.36285 5.83333 4.50139 5.83333 4.66667C5.83333 4.83194 5.77743 4.97049 5.66563 5.08229C5.55382 5.1941 5.41528 5.25 5.25 5.25Z" fill="#A3A3A3"/>
</svg>
