<svg width="33" height="32" viewBox="0 0 33 32" fill="none" xmlns="http://www.w3.org/2000/svg">
<path d="M4.49229 27.4606C3.08204 26.0439 1.98076 24.4149 1.18846 22.5736C0.396152 20.7324 0 18.8287 0 16.8625C0 14.8908 0.377562 12.9344 1.13269 10.9933C1.88781 9.05232 3.10768 7.23951 4.79228 5.5549C6.01024 4.33695 7.53524 3.33374 9.3673 2.54528C11.1994 1.75682 13.2744 1.15619 15.5923 0.743372C17.9103 0.330556 20.4365 0.0901756 23.1711 0.0222292C25.9057 -0.0457171 28.7743 0.0421013 31.7768 0.285684C31.9922 3.1523 32.0659 5.93752 31.9979 8.64135C31.93 11.3452 31.6935 13.8663 31.2883 16.2048C30.8832 18.5432 30.2915 20.649 29.5133 22.5221C28.7351 24.3952 27.7332 25.9445 26.5076 27.1702C24.8563 28.8343 23.0903 30.049 21.2095 30.8144C19.3288 31.5798 17.4239 31.9625 15.4949 31.9625C13.4726 31.9625 11.4858 31.5663 9.53457 30.774C7.5833 29.9817 5.90253 28.8772 4.49229 27.4606ZM8.97682 27.1318C9.98195 27.7625 11.0441 28.2254 12.1634 28.5202C13.2826 28.8151 14.3948 28.9625 15.4999 28.9625C17.0419 28.9625 18.5672 28.6574 20.0757 28.0472C21.5841 27.4369 23.0153 26.442 24.3692 25.0625C24.9668 24.4625 25.5727 23.6209 26.1868 22.5375C26.801 21.4542 27.3322 20.0375 27.7804 18.2875C28.2286 16.5375 28.5689 14.4209 28.8013 11.9375C29.0337 9.45421 29.0794 6.49587 28.9384 3.06254C27.3051 2.99587 25.457 2.97728 23.3942 3.00677C21.3313 3.03626 19.2736 3.20421 17.2211 3.51062C15.1685 3.81703 13.2288 4.29716 11.4018 4.951C9.57492 5.60485 8.09736 6.49587 6.96916 7.62408C5.48198 9.11125 4.44865 10.617 3.86916 12.1414C3.28967 13.6658 2.99993 15.1113 2.99993 16.4779C2.99993 18.3677 3.36852 20.0766 4.10569 21.6049C4.84287 23.1331 5.61019 24.2677 6.40764 25.0087C7.52557 22.4959 9.0967 20.085 11.121 17.7761C13.1454 15.4671 15.7101 13.4524 18.8152 11.7318C16.4665 13.7805 14.455 16.0305 12.7806 18.4818C11.1063 20.9331 9.83836 23.8164 8.97682 27.1318Z" fill="#5ADF82"/>
</svg>
