<svg width="36" height="35" viewBox="0 0 36 35" fill="none" xmlns="http://www.w3.org/2000/svg">
<path d="M2.31267 34.8086L0.205031 32.7009L20.5896 12.3163C19.9512 10.8137 19.8358 9.23361 20.2435 7.57593C20.6512 5.91825 21.5563 4.40864 22.9589 3.0471C24.4947 1.51122 26.2947 0.541994 28.3588 0.139422C30.4229 -0.263149 32.1255 0.206077 33.4665 1.5471C34.8075 2.88812 35.2767 4.59068 34.8742 6.65478C34.4716 8.71887 33.5024 10.5189 31.9665 12.0547C30.605 13.4573 29.0953 14.3624 27.4377 14.7701C25.78 15.1778 24.1999 15.0624 22.6973 14.424L19.6203 17.5009L34.8203 32.7009L32.7127 34.8086L17.5127 19.7086L2.31267 34.8086ZM8.32807 17.824L2.55885 12.0547C0.91271 10.4086 0.0607901 8.45092 0.00309359 6.18171C-0.0546029 3.91249 0.694745 1.91635 2.25114 0.19328L14.0742 12.0779L8.32807 17.824Z" fill="#D7001E"/>
</svg>
